name Precision Landing16_filtered_grf.mot
datacolumns 37
datarows 14
range 0.002500 0.009000
endheader
time	1_ground_force_vx	1_ground_force_vy	1_ground_force_vz	1_ground_force_px	1_ground_force_py	1_ground_force_pz	1_ground_torque_x	1_ground_torque_y	1_ground_torque_z	2_ground_force_vx	2_ground_force_vy	2_ground_force_vz	2_ground_force_px	2_ground_force_py	2_ground_force_pz	2_ground_torque_x	2_ground_torque_y	2_ground_torque_z	3_ground_force_vx	3_ground_force_vy	3_ground_force_vz	3_ground_force_px	3_ground_force_py	3_ground_force_pz	3_ground_torque_x	3_ground_torque_y	3_ground_torque_z	4_ground_force_vx	4_ground_force_vy	4_ground_force_vz	4_ground_force_px	4_ground_force_py	4_ground_force_pz	4_ground_torque_x	4_ground_torque_y	4_ground_torque_z
            0.002500	           -0.000000	           -0.000000	           -0.000000	            0.082987	            0.000000	            0.398289	           -0.000000	           -0.000000	            0.000000	           -0.000000	           -0.000000	           -0.000000	           -0.148927	            0.000000	            0.420500	           -0.000000	            0.000000	           -0.000000	           -5.217959	          256.289576	           88.905586	            0.353581	            1.254348	            1.890562	            4.143954	           -1.503388	          -45.841080	          -20.685048	          185.163364	           65.811069	           -0.289285	            1.264329	            1.901211	           -1.183121	           10.590775	            3.764191
            0.003000	           -0.000000	           -0.000000	           -0.000000	            0.082987	            0.000000	            0.398289	           -0.000000	           -0.000000	            0.000000	           -0.000000	           -0.000000	           -0.000000	           -0.148927	            0.000000	            0.420500	           -0.000000	            0.000000	           -0.000000	           -5.195201	          257.326027	           89.412834	            0.353581	            1.254348	            1.890562	            4.157243	           -1.479582	          -45.992473	          -20.679702	          185.618795	           66.006222	           -0.289285	            1.264329	            1.901211	           -1.183778	           10.625462	            3.778424
            0.003500	           -0.000000	           -0.000000	           -0.000000	            0.082987	            0.000000	            0.398289	           -0.000000	           -0.000000	            0.000000	           -0.000000	           -0.000000	           -0.000000	           -0.148927	            0.000000	            0.420500	           -0.000000	            0.000000	           -0.000000	           -5.173614	          258.373010	           89.922063	            0.353583	            1.254348	            1.890560	            4.170733	           -1.456082	          -46.145776	          -20.676113	          186.081479	           66.194462	           -0.289281	            1.264328	            1.901211	           -1.184428	           10.659646	            3.791939
            0.004000	            0.000000	           -0.000000	           -0.000000	            0.082987	            0.000000	            0.398289	           -0.000000	           -0.000000	            0.000000	           -0.000000	           -0.000000	           -0.000000	           -0.148927	            0.000000	            0.420500	           -0.000000	            0.000000	           -0.000000	           -5.153387	          259.428202	           90.431712	            0.353585	            1.254347	            1.890558	            4.184382	           -1.432996	          -46.300637	          -20.673996	          186.550417	           66.375067	           -0.289276	            1.264327	            1.901211	           -1.185054	           10.693255	            3.804685
            0.004500	            0.000000	           -0.000000	           -0.000000	            0.082987	            0.000000	            0.398289	           -0.000000	           -0.000000	            0.000000	           -0.000000	           -0.000000	           -0.000000	           -0.148927	            0.000000	            0.420500	           -0.000000	            0.000000	           -0.000000	           -5.134693	          260.489309	           90.940229	            0.353587	            1.254346	            1.890556	            4.198144	           -1.410432	          -46.456706	          -20.673062	          187.024602	           66.547361	           -0.289272	            1.264326	            1.901210	           -1.185640	           10.726225	            3.816621
            0.005000	            0.000000	           -0.000000	           -0.000000	            0.082987	            0.000000	            0.398289	           -0.000000	           -0.000000	            0.000000	           -0.000000	           -0.000000	           -0.000000	           -0.148927	            0.000000	            0.420500	           -0.000000	            0.000000	           -0.000000	           -5.117686	          261.554073	           91.446087	            0.353589	            1.254345	            1.890554	            4.211977	           -1.388494	          -46.613630	          -20.673028	          187.503020	           66.710714	           -0.289267	            1.264325	            1.901210	           -1.186171	           10.758498	            3.827709
            0.005500	            0.000000	           -0.000000	           -0.000000	            0.082987	            0.000000	            0.398289	           -0.000000	           -0.000000	            0.000000	           -0.000000	           -0.000000	           -0.000000	           -0.148927	            0.000000	            0.420500	           -0.000000	            0.000000	           -0.000000	           -5.103523	          262.620347	           91.947575	            0.353591	            1.254344	            1.890553	            4.226361	           -1.367314	          -46.771011	          -20.673619	          187.984547	           66.864866	           -0.289263	            1.264324	            1.901210	           -1.186633	           10.790014	            3.837937
            0.006000	            0.000000	           -0.000000	           -0.000000	            0.082987	            0.000000	            0.398289	           -0.000000	           -0.000000	            0.000000	           -0.000000	           -0.000000	           -0.000000	           -0.148927	            0.000000	            0.420500	           -0.000000	            0.000000	           -0.000000	           -5.091303	          263.685936	           92.443454	            0.353592	            1.254343	            1.890551	            4.240731	           -1.346964	          -46.928552	          -20.674573	          188.468289	           67.008975	           -0.289260	            1.264324	            1.901209	           -1.187012	           10.820737	            3.847260
            0.006500	            0.000000	           -0.000000	           -0.000000	            0.082987	            0.000000	            0.398289	           -0.000000	           -0.000000	            0.000000	           -0.000000	           -0.000000	           -0.000000	           -0.148927	            0.000000	            0.420500	           -0.000000	            0.000000	           -0.000000	           -5.081112	          264.748776	           92.932316	            0.353594	            1.254342	            1.890549	            4.255045	           -1.327539	          -47.085914	          -20.675644	          188.953254	           67.142573	           -0.289256	            1.264323	            1.901209	           -1.187298	           10.850628	            3.855658
            0.007000	            0.000000	           -0.000000	           -0.000000	            0.082987	            0.000000	            0.398289	           -0.000000	           -0.000000	            0.000000	           -0.000000	           -0.000000	           -0.000000	           -0.148927	            0.000000	            0.420500	           -0.000000	            0.000000	           -0.000000	           -5.073012	          265.806885	           93.412814	            0.353596	            1.254341	            1.890547	            4.269262	           -1.309132	          -47.242764	          -20.676603	          189.438469	           67.265247	           -0.289252	            1.264322	            1.901209	           -1.187480	           10.879658	            3.863116
            0.007500	            0.000000	           -0.000000	           -0.000000	            0.082987	            0.000000	            0.398289	           -0.000000	           -0.000000	            0.000000	           -0.000000	           -0.000000	           -0.000000	           -0.148927	            0.000000	            0.420500	           -0.000000	            0.000000	           -0.000000	           -5.067037	          266.858374	           93.883660	            0.353597	            1.254340	            1.890545	            4.283340	           -1.291831	          -47.398778	          -20.677241	          189.922982	           67.376648	           -0.289248	            1.264321	            1.901209	           -1.187551	           10.907801	            3.869627
            0.008000	            0.000000	           -0.000000	           -0.000000	            0.082987	            0.000000	            0.398289	           -0.000000	           -0.000000	            0.000000	           -0.000000	           -0.000000	           -0.000000	           -0.148927	            0.000000	            0.420500	           -0.000000	            0.000000	           -0.000000	           -5.065014	          267.901385	           94.343725	            0.353598	            1.254339	            1.890544	            4.298153	           -1.275683	          -47.553563	          -20.677313	          190.405712	           67.476943	           -0.289245	            1.264320	            1.901209	           -1.187502	           10.935034	            3.875213
            0.008500	            0.000000	           -0.000000	           -0.000000	            0.082987	            0.000000	            0.398289	           -0.000000	           -0.000000	            0.000000	           -0.000000	           -0.000000	           -0.000000	           -0.148927	            0.000000	            0.420500	           -0.000000	            0.000000	           -0.000000	           -5.065124	          268.934295	           94.791775	            0.353599	            1.254338	            1.890542	            4.312756	           -1.260798	          -47.706900	          -20.676720	          190.885924	           67.565442	           -0.289242	            1.264320	            1.901209	           -1.187331	           10.961355	            3.879850
            0.009000	            0.000000	            0.000000	           -0.000000	            0.082987	            0.000000	            0.398289	           -0.000000	           -0.000000	           -0.000000	           -0.000000	           -0.000000	           -0.000000	           -0.148927	            0.000000	            0.420500	           -0.000000	            0.000000	           -0.000000	           -5.067321	          269.955525	           95.226742	            0.353600	            1.254337	            1.890541	            4.327110	           -1.247245	          -47.858500	          -20.675328	          191.362762	           67.641971	           -0.289240	            1.264319	            1.901209	           -1.187038	           10.986760	            3.883546
